<svg xmlns="http://www.w3.org/2000/svg" width="1200" height="627" viewBox="0 0 1200 627">
  <defs>
    <pattern id="grid" width="84" height="84" patternUnits="userSpaceOnUse">
      <path d="M84 0H0V84" fill="none" stroke="#191816" stroke-opacity="0.055" stroke-width="1"/>
    </pattern>
    <pattern id="speckle" width="42" height="42" patternUnits="userSpaceOnUse">
      <circle cx="7" cy="9" r="1.1" fill="#191816" opacity="0.11"/>
      <circle cx="31" cy="28" r="1" fill="#ffffff" opacity="0.26"/>
    </pattern>
  </defs>

  <rect width="1200" height="627" fill="#efe2c9"/>
  <rect width="1200" height="627" fill="url(#grid)"/>
  <rect width="1200" height="627" fill="url(#speckle)" opacity="0.55"/>

  <g transform="translate(82 76)">
    <rect x="0" y="0" width="196" height="196" fill="#191816"/>
    <rect x="19" y="19" width="158" height="158" fill="none" stroke="#f8efd9" stroke-width="8"/>
    <text x="98" y="141" text-anchor="middle" font-family="Georgia, 'Times New Roman', serif" font-size="132" font-weight="700" fill="#f8efd9">E</text>
  </g>

  <g transform="translate(82 340)">
    <rect x="0" y="0" width="480" height="128" fill="#f8efd9" stroke="#191816" stroke-width="10"/>
    <path d="M42 64H210" stroke="#0e558a" stroke-width="22"/>
    <g transform="translate(258 50)" fill="#c43c35">
      <rect x="0" y="0" width="30" height="30"/>
      <rect x="50" y="0" width="30" height="30"/>
      <rect x="100" y="0" width="30" height="30"/>
    </g>
    <path d="M420 64H438" stroke="#191816" stroke-width="22"/>
  </g>

  <g transform="translate(616 56)">
    <rect x="24" y="24" width="458" height="500" fill="#d7c3a2"/>
    <rect x="0" y="0" width="458" height="500" fill="#f8efd9" stroke="#191816" stroke-width="10"/>

    <g transform="translate(54 50)">
      <circle cx="172" cy="168" r="137" fill="none" stroke="#0e558a" stroke-width="18"/>
      <path d="M18 372H356" stroke="#e4a412" stroke-width="20" stroke-linecap="round"/>
      <path d="M84 246L172 176" stroke="#0e558a" stroke-width="18" stroke-linecap="round"/>
      <path d="M84 246L172 372" stroke="#c43c35" stroke-width="18" stroke-linecap="round"/>
      <path d="M172 176L172 372" stroke="#191816" stroke-width="18" stroke-linecap="round"/>
      <path d="M172 40L172 176" pathLength="145" fill="none" stroke="#e4a412" stroke-width="22" stroke-linecap="butt" stroke-dasharray="10 5"/>
      <path d="M172 176L320 244" pathLength="160" fill="none" stroke="#0e558a" stroke-width="22" stroke-linecap="butt" stroke-dasharray="10 5"/>
      <path d="M172 372L366 316" pathLength="205" fill="none" stroke="#c43c35" stroke-width="22" stroke-linecap="butt" stroke-dasharray="10 5"/>
      <path d="M320 244L366 316" pathLength="85" fill="none" stroke="#191816" stroke-width="22" stroke-linecap="butt" stroke-dasharray="10 5"/>
      <path d="M84 246L132 258A54 54 0 0 1 102 303Z" fill="#191816"/>
      <path d="M172 372L232 372A60 60 0 0 0 190 313Z" fill="#0e558a"/>
      <path d="M172 372L232 372A60 60 0 0 1 202 392Z" fill="#c43c35"/>
    </g>
  </g>
</svg>
