<svg xmlns="http://www.w3.org/2000/svg" width="1200" height="627" viewBox="0 0 1200 627">
  <defs>
    <pattern id="grid" width="84" height="84" patternUnits="userSpaceOnUse">
      <path d="M84 0H0V84" fill="none" stroke="#191816" stroke-opacity="0.055" stroke-width="1"/>
    </pattern>
    <pattern id="speckle" width="42" height="42" patternUnits="userSpaceOnUse">
      <circle cx="7" cy="9" r="1.1" fill="#191816" opacity="0.11"/>
      <circle cx="31" cy="28" r="1" fill="#ffffff" opacity="0.26"/>
    </pattern>
  </defs>

  <rect width="1200" height="627" fill="#efe2c9"/>
  <rect width="1200" height="627" fill="url(#grid)"/>
  <rect width="1200" height="627" fill="url(#speckle)" opacity="0.55"/>

  <g transform="translate(72 58)">
    <rect x="0" y="0" width="76" height="76" fill="#191816"/>
    <rect x="9" y="9" width="58" height="58" fill="none" stroke="#f8efd9" stroke-width="3"/>
    <text x="38" y="54" text-anchor="middle" font-family="Georgia, 'Times New Roman', serif" font-size="48" font-weight="700" fill="#f8efd9">E</text>
    <text x="104" y="31" font-family="'Courier New', monospace" font-size="22" font-weight="700" letter-spacing="1" fill="#191816">EUCLID DESIGN</text>
    <text x="104" y="61" font-family="'Courier New', monospace" font-size="16" font-weight="700" letter-spacing="1.3" fill="#c43c35">PAPER / INK / GEOMETRY</text>
  </g>

  <g transform="translate(72 205)">
    <text x="0" y="0" font-family="Georgia, 'Times New Roman', serif" font-size="72" font-weight="500" fill="#191816">Paper and</text>
    <text x="0" y="82" font-family="Georgia, 'Times New Roman', serif" font-size="72" font-weight="500" fill="#191816">geometry UI</text>

    <text x="0" y="146" font-family="Georgia, 'Times New Roman', serif" font-size="31" fill="#191816" opacity="0.75">Old-style serif type, thick ink rules,</text>
    <text x="0" y="188" font-family="Georgia, 'Times New Roman', serif" font-size="31" fill="#191816" opacity="0.75">colored marks, warm paper, square dashes.</text>

    <g transform="translate(0 270)">
      <rect x="0" y="0" width="550" height="78" fill="#f8efd9" stroke="#191816" stroke-width="5"/>
      <path d="M30 39H128" stroke="#0e558a" stroke-width="9"/>
      <text x="158" y="48" font-family="'Courier New', monospace" font-size="19" font-weight="700" fill="#191816">mrjf/euclid-design-skill</text>
      <g transform="translate(466 31)" fill="#c43c35">
        <rect x="0" y="0" width="16" height="16"/>
        <rect x="26" y="0" width="16" height="16"/>
        <rect x="52" y="0" width="16" height="16"/>
      </g>
    </g>
  </g>

  <g transform="translate(720 72)">
    <rect x="18" y="18" width="394" height="464" fill="#d7c3a2"/>
    <rect x="0" y="0" width="394" height="464" fill="#f8efd9" stroke="#191816" stroke-width="6"/>

    <g transform="translate(54 52)">
      <circle cx="148" cy="150" r="112" fill="none" stroke="#0e558a" stroke-width="9"/>
      <path d="M0 328H292" stroke="#e4a412" stroke-width="9" stroke-linecap="round"/>
      <path d="M74 210L148 154" stroke="#0e558a" stroke-width="8" stroke-linecap="round"/>
      <path d="M74 210L148 328" stroke="#c43c35" stroke-width="8" stroke-linecap="round"/>
      <path d="M148 154L148 328" stroke="#191816" stroke-width="8" stroke-linecap="round"/>
      <path d="M148 48L148 154" pathLength="115" fill="none" stroke="#e4a412" stroke-width="11" stroke-linecap="butt" stroke-dasharray="10 5"/>
      <path d="M148 154L274 213" pathLength="130" fill="none" stroke="#0e558a" stroke-width="11" stroke-linecap="butt" stroke-dasharray="10 5"/>
      <path d="M148 328L308 284" pathLength="160" fill="none" stroke="#c43c35" stroke-width="11" stroke-linecap="butt" stroke-dasharray="10 5"/>
      <path d="M274 213L308 284" pathLength="85" fill="none" stroke="#191816" stroke-width="11" stroke-linecap="butt" stroke-dasharray="10 5"/>
      <path d="M74 210L108 218A36 36 0 0 1 88 248Z" fill="#191816"/>
      <path d="M148 328L185 328A37 37 0 0 0 160 291Z" fill="#0e558a"/>
      <path d="M148 328L185 328A37 37 0 0 1 166 340Z" fill="#c43c35"/>
    </g>

    <g transform="translate(46 392)">
      <rect x="0" y="0" width="80" height="10" fill="#0e558a"/>
      <rect x="110" y="0" width="16" height="16" fill="#c43c35"/>
      <rect x="136" y="0" width="16" height="16" fill="#c43c35"/>
      <rect x="162" y="0" width="16" height="16" fill="#c43c35"/>
      <rect x="208" y="0" width="118" height="10" fill="#191816"/>
    </g>
  </g>
</svg>
