<svg xmlns="http://www.w3.org/2000/svg" width="1200" height="627" viewBox="0 0 1200 627">
  <defs>
    <pattern id="grid" width="72" height="72" patternUnits="userSpaceOnUse">
      <path d="M72 0H0V72" fill="none" stroke="#191816" stroke-opacity="0.06" stroke-width="1"/>
    </pattern>
    <pattern id="speckle" width="42" height="42" patternUnits="userSpaceOnUse">
      <circle cx="8" cy="10" r="1" fill="#191816" opacity="0.12"/>
      <circle cx="31" cy="28" r="0.9" fill="#ffffff" opacity="0.28"/>
    </pattern>
  </defs>

  <rect width="1200" height="627" fill="#efe2c9"/>
  <rect width="1200" height="627" fill="url(#grid)"/>
  <rect width="1200" height="627" fill="url(#speckle)" opacity="0.55"/>

  <g transform="translate(76 70)">
    <rect x="0" y="0" width="172" height="172" fill="#191816"/>
    <rect x="17" y="17" width="138" height="138" fill="none" stroke="#f8efd9" stroke-width="8"/>
    <text x="86" y="124" text-anchor="middle" font-family="Georgia, 'Times New Roman', serif" font-size="116" font-weight="700" fill="#f8efd9">E</text>
  </g>

  <g transform="translate(72 355)">
    <rect x="0" y="0" width="420" height="126" fill="#f8efd9" stroke="#191816" stroke-width="10"/>
    <path d="M44 63H188" stroke="#0e558a" stroke-width="24"/>
    <g transform="translate(244 47)" fill="#c43c35">
      <rect x="0" y="0" width="32" height="32"/>
      <rect x="52" y="0" width="32" height="32"/>
      <rect x="104" y="0" width="32" height="32"/>
    </g>
    <path d="M384 63H406" stroke="#191816" stroke-width="24"/>
  </g>

  <g transform="translate(544 48)">
    <rect x="24" y="24" width="500" height="500" fill="#d7c3a2"/>
    <rect x="0" y="0" width="500" height="500" fill="#f8efd9" stroke="#191816" stroke-width="12"/>

    <g transform="translate(44 38)">
      <circle cx="218" cy="188" r="142" fill="none" stroke="#0e558a" stroke-width="22"/>
      <path d="M42 390H396" stroke="#e4a412" stroke-width="22" stroke-linecap="round"/>
      <path d="M110 254L218 198" stroke="#0e558a" stroke-width="20" stroke-linecap="round"/>
      <path d="M110 254L218 390" stroke="#c43c35" stroke-width="20" stroke-linecap="round"/>
      <path d="M218 198L218 390" stroke="#191816" stroke-width="20" stroke-linecap="round"/>
      <path d="M218 48L218 198" pathLength="150" fill="none" stroke="#e4a412" stroke-width="24" stroke-linecap="butt" stroke-dasharray="10 5"/>
      <path d="M218 198L350 262" pathLength="150" fill="none" stroke="#0e558a" stroke-width="24" stroke-linecap="butt" stroke-dasharray="10 5"/>
      <path d="M218 390L414 334" pathLength="210" fill="none" stroke="#c43c35" stroke-width="24" stroke-linecap="butt" stroke-dasharray="10 5"/>
      <path d="M350 262L414 334" pathLength="105" fill="none" stroke="#191816" stroke-width="24" stroke-linecap="butt" stroke-dasharray="10 5"/>
      <path d="M110 254L164 268A62 62 0 0 1 130 318Z" fill="#191816"/>
      <path d="M218 390L288 390A70 70 0 0 0 240 322Z" fill="#0e558a"/>
      <path d="M218 390L288 390A70 70 0 0 1 252 414Z" fill="#c43c35"/>
    </g>
  </g>
</svg>
